<svg height="464pt" viewBox="-4 0 464 464" width="464pt" xmlns="http://www.w3.org/2000/svg">
    <path
        d="m424 232c0 110.457031-89.542969 200-200 200s-200-89.542969-200-200 89.542969-200 200-200 200 89.542969 200 200zm0 0"
        fill="#ffd782" />
    <path d="m200 256h48c8.835938 0 16 7.164062 16 16v32h-80v-32c0-8.835938 7.164062-16 16-16zm0 0"
        fill="#b25fe4" />
    <path
        d="m272 360c0 35.921875-18.800781 67.679688-32.878906 86.320312-4.632813 6.230469-9.6875 12.136719-15.121094 17.679688-5.316406-5.417969-10.261719-11.191406-14.800781-17.28125-14.078125-18.558594-33.199219-50.480469-33.199219-86.71875.773438-18.886719 3.453125-37.652344 8-56h80c4.546875 18.347656 7.226562 37.113281 8 56zm0 0"
        fill="#b25fe4" />
    <path
        d="m248 358.238281c.238281 29.597657-2.738281 59.128907-8.878906 88.082031-4.632813 6.230469-9.6875 12.136719-15.121094 17.679688-5.316406-5.417969-10.261719-11.191406-14.800781-17.28125-4.847657-21.199219-7.925781-42.765625-9.199219-64.480469h16c1.300781 19.269531 4.03125 38.414063 8.160156 57.28125 5.410156-26.75 8.035156-53.988281 7.839844-81.28125zm0 0"
        fill="#5c067c" />
    <path d="m224 0v128l-16 32v96h32v-88l16-32v-136zm0 0" fill="#ad6327" />
    <path
        d="m120 240c0-8.835938-10.746094-16-24-16s-24 7.164062-24 16 10.746094 16 24 16 24-7.164062 24-16zm0 0"
        fill="#d3843d" />
    <path
        d="m344 184c0-8.835938-10.746094-16-24-16s-24 7.164062-24 16 10.746094 16 24 16 24-7.164062 24-16zm0 0"
        fill="#d3843d" />
    <path
        d="m392 264c0-13.253906-14.328125-24-32-24s-32 10.746094-32 24 14.328125 24 32 24 32-10.746094 32-24zm0 0"
        fill="#d3843d" />
    <path
        d="m184 120c0-8.835938-10.746094-16-24-16s-24 7.164062-24 16 10.746094 16 24 16 24-7.164062 24-16zm0 0"
        fill="#d3843d" />
    <path d="m72 152h16v16h-16zm0 0" fill="#fcf05a" />
    <path d="m304 112h16v16h-16zm0 0" fill="#fcf05a" />
    <path d="m120 320h16v16h-16zm0 0" fill="#fcf05a" />
    <path d="m160 208h16v16h-16zm0 0" fill="#fcf05a" />
    <path d="m288 240h16v16h-16zm0 0" fill="#fcf05a" />
    <g fill="#32b1cc">
        <path d="m424 64h16v16h-16zm0 0" />
        <path d="m424 96h16v16h-16zm0 0" />
        <path d="m408 80h16v16h-16zm0 0" />
        <path d="m440 80h16v16h-16zm0 0" />
        <path d="m16 368h16v16h-16zm0 0" />
        <path d="m16 400h16v16h-16zm0 0" />
        <path d="m0 384h16v16h-16zm0 0" />
        <path d="m32 384h16v16h-16zm0 0" />
    </g>
    <path
        d="m344 336h-28c-11.046875 0-20-8.953125-20-20 0-2.210938-1.789062-4-4-4h-128c-11.046875 0-20-8.953125-20-20 0-2.210938-1.789062-4-4-4h-28v-16h28c11.046875 0 20 8.953125 20 20 0 2.210938 1.789062 4 4 4h128c11.046875 0 20 8.953125 20 20 0 2.210938 1.789062 4 4 4h28zm0 0"
        fill="#e97424" />
</svg>